<svg xmlns="http://www.w3.org/2000/svg" widht="16" height="16"  viewBox="0 0 48 48"><defs><style>.cls-1{opacity:0.1;}.cls-2{fill:#ea5451;}</style></defs><title>Asset 1</title><g id="Layer_2" data-name="Layer 2"><g id="Layer_1-2" data-name="Layer 1"><rect class="cls-1" width="48" height="48" rx="6" ry="6"/><g id="g20"><path id="path22" class="cls-2" d="M23.33,15.51,27.44,25h6L25.9,7.36A3.08,3.08,0,0,0,25,6.25a2.74,2.74,0,0,0-4.22,1.11L13.27,25H19"/></g><g id="g24"><path id="path26" class="cls-2" d="M35.84,30h-6L33,37.49a2.77,2.77,0,0,0,4.59.79,2.6,2.6,0,0,0,.48-3Z"/></g><g id="g28"><path id="path30" class="cls-2" d="M8.56,35.33a1.69,1.69,0,0,0-.15.52,3.87,3.87,0,0,0-.05.56,2.93,2.93,0,0,0,.74,1.87,2.5,2.5,0,0,0,2,.9,2.85,2.85,0,0,0,1.49-.41,2.93,2.93,0,0,0,1.07-1.28c.52-1.27,1-2.53,1.57-3.8s1-2.46,1.57-3.69h-6Z"/></g></g></g></svg>