<svg xmlns="http://www.w3.org/2000/svg" widht="16" height="16" viewBox="0 0 30 33.51"><defs><style>.cls-1{fill:#ea5451;}</style></defs><title>Asset 2</title><g id="Layer_2" data-name="Layer 2"><g id="Layer_1-2" data-name="Layer 1"><g id="g20"><path id="path22" class="cls-1" d="M15,9.85l4.1,9.48h6L17.54,1.69A3.15,3.15,0,0,0,16.63.58a2.74,2.74,0,0,0-4.22,1.11L4.91,19.33h5.73"/></g><g id="g24"><path id="path26" class="cls-1" d="M27.48,24.33H21.53l3.14,7.49a2.51,2.51,0,0,0,2.56,1.69,2.52,2.52,0,0,0,2-.89A3,3,0,0,0,30,30.74a2.71,2.71,0,0,0-.26-1.07Z"/></g><g id="g28"><path id="path30" class="cls-1" d="M.21,29.67a1.53,1.53,0,0,0-.16.51,4,4,0,0,0,0,.56,3,3,0,0,0,.74,1.88,2.53,2.53,0,0,0,2,.89,2.83,2.83,0,0,0,1.49-.41,2.87,2.87,0,0,0,1.07-1.28c.52-1.26,1-2.53,1.57-3.79s1-2.47,1.57-3.7h-6Z"/></g></g></g></svg>